<?xml version="1.0" standalone="no"?>
<!DOCTYPE svg PUBLIC "-//W3C//DTD SVG 20010904//EN"
 "http://www.w3.org/TR/2001/REC-SVG-20010904/DTD/svg10.dtd">
<svg version="1.0" xmlns="http://www.w3.org/2000/svg"
 width="1280.000000pt" height="500.000000pt" viewBox="0 0 1280.000000 700.000000"
 preserveAspectRatio="xMidYMid meet">
<metadata>
Created by potrace 1.15, written by Peter Selinger 2001-2017
</metadata>

<style>.cls-1{opacity:0.5}</style>

<g transform="translate(0.000000,1280.000000) scale(0.100000,-0.100000)"
fill="#ff0330" stroke="none">
<path d="M7950 12414 c-123 -33 -239 -104 -344 -210 -117 -118 -194 -257 -264
-475 -57 -177 -67 -252 -67 -494 0 -206 2 -227 28 -328 60 -239 155 -409 311
-555 134 -125 279 -165 458 -127 276 58 529 344 633 715 42 152 57 251 62 425
7 248 -28 443 -112 618 -100 209 -269 377 -432 427 -78 24 -192 26 -273 4z"/>
<path d="M10003 11799 c-313 -37 -627 -277 -831 -637 -191 -335 -253 -679
-176 -976 51 -196 180 -361 344 -440 62 -29 71 -31 185 -31 145 1 232 22 380
94 251 123 466 350 604 641 59 125 93 223 128 373 23 96 26 135 26 267 0 140
-3 164 -27 245 -40 132 -98 236 -175 314 -126 127 -266 173 -458 150z"/>

<path d="M6155 11041 c-131 -37 -234 -115 -314 -238 -149 -226 -221 -538 -193
-826 39 -392 219 -715 500 -894 108 -70 240 -92 367 -63 118 27 255 119 331
223 258 349 293 897 84 1323 -127 260 -300 430 -485 479 -77 20 -214 18 -290
-4z"/>
<path d="M10654 9729 c-74 -12 -210 -57 -279 -91 -186 -93 -388 -273 -507
-453 -91 -136 -182 -328 -210 -439 -32 -130 -32 -328 0 -441 77 -267 258 -405
533 -405 148 0 269 30 419 105 229 115 436 322 577 575 52 92 121 280 139 375
19 106 15 275 -10 370 -43 159 -148 301 -271 363 -94 47 -255 64 -391 41z"/>
<path d="M7838 9359 c-324 -31 -619 -149 -898 -358 -346 -259 -620 -535 -831
-836 -92 -131 -216 -345 -239 -415 -32 -91 -38 -251 -15 -354 39 -176 163
-345 305 -414 162 -79 390 -108 714 -90 111 6 291 11 401 11 186 0 211 -2 353
-32 287 -59 454 -151 771 -427 325 -283 401 -336 556 -384 97 -30 248 -37 339
-16 165 39 283 131 354 276 67 137 84 215 89 430 7 253 -18 442 -97 755 -175
691 -348 1082 -623 1412 -218 261 -504 404 -886 442 -115 12 -166 12 -293 0z"/>


</g>
</svg>
